{"title":"Intelligent Idiots (Telugu.2015.X264.700 Mb.Mp4.AAC) [MGR.lollo]","uid":11697158,"size":724575231,"categoryP":"video","categoryS":"movies","magnet":"?xt=urn:btih:3e95952233dd5624f91f80ae4611ed5a78aca055&amp;dn=Intelligent+Idiots+%28Telugu.2015.X264.700+Mb.Mp4.AAC%29+%5BMGR.lollo%5D&amp;tr=udp%3A%2F%2Ftracker.openbittorrent.com%3A80&amp;tr=udp%3A%2F%2Fopen.demonii.com%3A1337&amp;tr=udp%3A%2F%2Ftracker.coppersurfer.tk%3A6969&amp;tr=udp%3A%2F%2Fexodus.desync.com%3A6969","seeders":3,"leechers":1,"uploader":"TeamXDN","files":1,"time":1423762907,"description":"Intelligent Idiots (Telugu.2015.X264.700 Mb.Mp4.AAC) [MGR.lollo]\n\nFormat                           : MPEG-4\nFormat profile                   : Base Media / Version 2\nCodec ID                         : mp42\nFile size                        : 691 MiB\nDuration                         : 1h 56mn\nOverall bit rate                 : 827 Kbps\nEncoded date                     : UTC 2015-02-11 20:50:15\nTagged date                      : UTC 2015-02-11 21:09:35\nWriting application              : HandBrake 0.9.3 2008112300\n\nVideo\nID                               : 1\nFormat                           : AVC\nFormat/Info                      : Advanced Video Codec\nFormat profile                   : &lt;a class=&quot;__cf_email__&quot; href=&quot;/cdn-cgi/l/email-protection&quot; data-cfemail=&quot;9bd6faf2f5dbd7a8b5ab&quot;&gt;[email&amp;#160;protected]&lt;/a&gt;&lt;script cf-hash='f9e31' type=&quot;text/javascript&quot;&gt;\n/* &lt;![CDATA[ */!function(){try{var t=&quot;currentScript&quot;in document?document.currentScript:function(){for(var t=document.getElementsByTagName(&quot;script&quot;),e=t.length;e--;)if(t[e].getAttribute(&quot;cf-hash&quot;))return t[e]}();if(t&amp;&amp;t.previousSibling){var e,r,n,i,c=t.previousSibling,a=c.getAttribute(&quot;data-cfemail&quot;);if(a){for(e=&quot;&quot;,r=parseInt(a.substr(0,2),16),n=2;a.length-n;n+=2)i=parseInt(a.substr(n,2),16)^r,e+=String.fromCharCode(i);e=document.createTextNode(e),c.parentNode.replaceChild(e,c)}}}catch(u){}}();/* ]]&gt; */&lt;/script&gt;\nFormat settings, CABAC           : Yes\nFormat settings, ReFrames        : 2 frames\nCodec ID                         : avc1\nCodec ID/Info                    : Advanced Video Coding\nDuration                         : 1h 56mn\nBit rate mode                    : Variable\nBit rate                         : 741 Kbps\nWidth                            : 672 pixels\nHeight                           : 272 pixels\nDisplay aspect ratio             : 2.471\nFrame rate mode                  : Variable\nFrame rate                       : 29.970 fps\nMinimum frame rate               : 29.959 fps\nMaximum frame rate               : 29.980 fps\nColor space                      : YUV\nChroma subsampling               : 4:2:0\nBit depth                        : 8 bits\nScan type                        : Progressive\nBits/(Pixel*Frame)               : 0.135\nStream size                      : 619 MiB (90%)\nWriting library                  : x264 core 65\nLanguage                         : English\nEncoded date                     : UTC 2015-02-11 20:50:15\nTagged date                      : UTC 2015-02-11 21:09:35\nColor primaries                  : BT.601-6 525, BT.1358 525, BT.1700 NTSC, SMPTE 170M\nTransfer characteristics         : BT.709-5, BT.1361\nMatrix coefficients              : BT.601-6 525, BT.1358 525, BT.1700 NTSC, SMPTE 170M\n\nAudio\nID                               : 2\nFormat                           : AAC\nFormat/Info                      : Advanced Audio Codec\nFormat version                   : Version 4\nFormat profile                   : LC\nFormat settings, SBR             : No\nCodec ID                         : 40\nDuration                         : 1h 56mn\nBit rate mode                    : Variable\nBit rate                         : 80.0 Kbps\nMaximum bit rate                 : 106 Kbps\nChannel(s)                       : 2 channels\nChannel positions                : Front: L R\nSampling rate                    : 44.1 KHz\nStream size                      : 66.8 MiB (10%)\nEncoded date                     : UTC 2015-02-11 20:50:15\nTagged date                      : UTC 2015-02-11 21:09:33","torrent":{"xt":"urn:btih:3e95952233dd5624f91f80ae4611ed5a78aca055","amp;dn":"Intelligent+Idiots+%28Telugu.2015.X264.700+Mb.Mp4.AAC%29+%5BMGR.lollo%5D","amp;tr":["udp%3A%2F%2Ftracker.openbittorrent.com%3A80","udp%3A%2F%2Fopen.demonii.com%3A1337","udp%3A%2F%2Ftracker.coppersurfer.tk%3A6969","udp%3A%2F%2Fexodus.desync.com%3A6969"],"infoHash":"3e95952233dd5624f91f80ae4611ed5a78aca055","infoHashBuffer":{"type":"Buffer","data":[62,149,149,34,51,221,86,36,249,31,128,174,70,17,237,90,120,172,160,85]},"announce":[],"urlList":[]}}